<svg xmlns="http://www.w3.org/2000/svg" viewBox="0 0 1024 1024" role="img" aria-label="Mindo app icon">
  <defs>
    <linearGradient id="nodeGradient" x1="180" y1="170" x2="860" y2="850" gradientUnits="userSpaceOnUse">
      <stop offset="0" stop-color="#49D7FF"/>
      <stop offset=".48" stop-color="#4F8BFF"/>
      <stop offset="1" stop-color="#6B5CFF"/>
    </linearGradient>
    <linearGradient id="accentGradient" x1="338" y1="294" x2="682" y2="720" gradientUnits="userSpaceOnUse">
      <stop offset="0" stop-color="#0FB9FF"/>
      <stop offset="1" stop-color="#6D65FF"/>
    </linearGradient>
    <filter id="softShadow" x="-20%" y="-20%" width="140%" height="140%" color-interpolation-filters="sRGB">
      <feDropShadow dx="0" dy="22" stdDeviation="34" flood-color="#315DFF" flood-opacity=".16"/>
      <feDropShadow dx="0" dy="2" stdDeviation="8" flood-color="#111827" flood-opacity=".08"/>
    </filter>
  </defs>

  <rect width="1024" height="1024" rx="224" fill="#FFFFFF"/>
  <rect x="90" y="90" width="844" height="844" rx="184" fill="#FFFFFF" stroke="#EEF1F7" stroke-width="10"/>

  <g filter="url(#softShadow)">
    <path d="M310 636V388c0-50 61-75 96-39l106 108 106-108c35-36 96-11 96 39v248"
      fill="none" stroke="url(#nodeGradient)" stroke-width="76" stroke-linecap="round" stroke-linejoin="round"/>
    <path d="M405 548h214" fill="none" stroke="url(#accentGradient)" stroke-width="52" stroke-linecap="round"/>
  </g>

  <g fill="#FFFFFF" stroke="url(#nodeGradient)" stroke-width="34">
    <circle cx="310" cy="638" r="58"/>
    <circle cx="310" cy="388" r="58"/>
    <circle cx="512" cy="458" r="58"/>
    <circle cx="714" cy="388" r="58"/>
    <circle cx="714" cy="638" r="58"/>
  </g>

  <g>
    <circle cx="714" cy="638" r="42" fill="#16C784"/>
    <path d="M692 637l15 16 30-36" fill="none" stroke="#FFFFFF" stroke-width="16" stroke-linecap="round" stroke-linejoin="round"/>
  </g>

  <path d="M286 748h452" fill="none" stroke="#E8ECF5" stroke-width="18" stroke-linecap="round"/>
</svg>
